<?xml version="1.0" encoding="UTF-8" standalone="no"?>
<!DOCTYPE svg PUBLIC "-//W3C//DTD SVG 1.1//EN" "http://www.w3.org/Graphics/SVG/1.1/DTD/svg11.dtd">
<svg width="100%" height="100%" viewBox="0 0 256 256" version="1.1" xmlns="http://www.w3.org/2000/svg" xmlns:xlink="http://www.w3.org/1999/xlink" xml:space="preserve" xmlns:serif="http://www.serif.com/" style="fill-rule:evenodd;clip-rule:evenodd;stroke-linejoin:round;stroke-miterlimit:2;">
    <g transform="matrix(0.511592,0,0,0.511592,-3.4362,-2.03977)">
        <path d="M396.19,123.14C393.448,123.139 391.193,120.882 391.193,118.14C391.193,115.884 392.72,113.893 394.9,113.31L398.59,112.31C399.012,112.197 399.448,112.139 399.885,112.139C402.628,112.139 404.886,114.397 404.886,117.14C404.886,119.396 403.359,121.386 401.18,121.97L397.49,122.97C397.066,123.085 396.629,123.142 396.19,123.14Z" style="fill:rgb(45,45,45);fill-rule:nonzero;"/>
    </g>
    <g transform="matrix(0.511592,0,0,0.511592,-3.4362,-2.03977)">
        <path d="M74.08,438C71.338,437.999 69.083,435.742 69.083,433C69.083,432.312 69.225,431.631 69.5,431C69.84,430.19 77.85,410.43 59.59,394.5C41.33,378.57 23.7,389.77 23,390.25C22.188,390.779 21.239,391.061 20.27,391.061C17.527,391.061 15.269,388.803 15.269,386.06C15.269,384.371 16.125,382.792 17.54,381.87C25.99,376.33 47.03,370.27 66.21,387C85.39,403.73 82.75,425.68 78.73,435C77.927,436.841 76.089,438.027 74.08,438Z" style="fill:rgb(45,45,45);fill-rule:nonzero;"/>
    </g>
    <g transform="matrix(0.511592,0,0,0.511592,-3.4362,-2.03977)">
        <path d="M56.16,442.58C47.27,442.58 37.04,439.82 27.42,431.43C14.94,420.54 12.42,408.23 12.42,399.82C12.433,394.348 13.545,388.934 15.69,383.9C16.584,382.362 18.234,381.413 20.013,381.413C22.756,381.413 25.013,383.67 25.013,386.413C25.013,387.017 24.903,387.615 24.69,388.18C24.3,389.01 15.78,408.07 33.92,423.89C52.06,439.71 70.67,429.19 71.45,428.73C72.209,428.292 73.071,428.062 73.948,428.062C76.691,428.062 78.948,430.319 78.948,433.062C78.948,434.783 78.059,436.387 76.6,437.3C70.36,440.803 63.315,442.622 56.16,442.58Z" style="fill:rgb(45,45,45);fill-rule:nonzero;"/>
    </g>
    <g transform="matrix(0.511592,0,0,0.511592,-3.4362,-2.03977)">
        <path d="M318.16,458.46C317.824,458.461 317.489,458.428 317.16,458.36C314.487,457.82 312.722,455.188 313.24,452.51C315.19,442.6 325.58,423.32 350.96,421.32C376.34,419.32 390.17,436.56 393.96,445.95C394.174,446.515 394.284,447.115 394.284,447.72C394.284,450.463 392.027,452.72 389.284,452.72C387.307,452.72 385.509,451.548 384.71,449.74C384.37,448.92 375.86,429.38 351.71,431.29C327.56,433.2 323.19,453.6 323.01,454.46C322.54,456.762 320.509,458.437 318.16,458.46Z" style="fill:rgb(45,45,45);fill-rule:nonzero;"/>
    </g>
    <g transform="matrix(0.511592,0,0,0.511592,-3.4362,-2.03977)">
        <path d="M351.63,480.24C328.84,480.24 316.76,464.17 313.47,455.24C313.265,454.685 313.159,454.097 313.159,453.505C313.159,450.762 315.417,448.504 318.16,448.504C320.248,448.504 322.126,449.812 322.85,451.77C323.16,452.61 330.85,472.04 354.85,470.15C379.22,468.22 384.5,446.95 384.55,446.74C385.025,444.423 387.083,442.745 389.448,442.745C392.191,442.745 394.448,445.002 394.448,447.745C394.448,448.179 394.392,448.611 394.28,449.03C391.96,458.91 380.9,478.12 355.63,480.12C354.25,480.19 352.92,480.24 351.63,480.24Z" style="fill:rgb(45,45,45);fill-rule:nonzero;"/>
    </g>
    <g transform="matrix(0.511592,0,0,0.511592,-3.4362,-2.03977)">
        <path d="M85,451C83.427,451 81.944,450.258 81,449C77.798,444.688 74.236,440.657 70.35,436.95C69.363,436.007 68.804,434.7 68.804,433.335C68.804,430.592 71.062,428.334 73.805,428.334C75.092,428.334 76.33,428.831 77.26,429.72C81.545,433.804 85.472,438.247 89,443C89.649,443.865 90,444.918 90,446C90,448.743 87.743,451 85,451Z" style="fill:rgb(45,45,45);fill-rule:nonzero;"/>
    </g>
    <g transform="matrix(0.511592,0,0,0.511592,-3.4362,-2.03977)">
        <path d="M66.78,140.36C64.048,140.344 61.808,138.092 61.808,135.36C61.808,133.387 62.976,131.59 64.78,130.79C65.58,130.43 84.88,121.36 82.28,97.26C79.68,73.16 59.17,69.4 58.28,69.26C55.887,68.852 54.119,66.758 54.119,64.33C54.119,61.587 56.377,59.329 59.12,59.329C59.402,59.329 59.682,59.353 59.96,59.4C69.96,61.07 89.48,70.9 92.21,96.21C94.94,121.52 78.08,135.82 68.8,139.93C68.164,140.212 67.476,140.359 66.78,140.36Z" style="fill:rgb(45,45,45);fill-rule:nonzero;"/>
    </g>
    <g transform="matrix(0.511592,0,0,0.511592,-3.4362,-2.03977)">
        <path d="M66.78,140.36C66.444,140.36 66.109,140.327 65.78,140.26C55.84,138.26 36.32,127.71 33.6,102.51C30.88,77.31 47.88,63.42 57.26,59.67C57.855,59.432 58.489,59.309 59.13,59.309C61.887,59.309 64.156,61.578 64.156,64.335C64.156,66.384 62.902,68.237 61,69C60.16,69.35 41,77.55 43.54,101.49C46.14,125.59 66.93,130.33 67.82,130.49C70.119,130.98 71.778,133.029 71.778,135.38C71.778,138.107 69.547,140.357 66.82,140.38L66.78,140.36Z" style="fill:rgb(45,45,45);fill-rule:nonzero;"/>
    </g>
    <g transform="matrix(0.511592,0,0,0.511592,-3.4362,-2.03977)">
        <path d="M63,189C62.681,188.999 62.363,188.969 62.05,188.91C59.69,188.472 57.962,186.394 57.962,183.994C57.962,183.681 57.991,183.368 58.05,183.06C61.95,162.58 61.64,140.48 61.34,135.68C61.334,135.577 61.33,135.473 61.33,135.37C61.33,132.622 63.592,130.36 66.34,130.36C68.971,130.36 71.177,132.434 71.34,135.06C71.966,151.762 70.809,168.483 67.89,184.94C67.442,187.279 65.382,188.99 63,189Z" style="fill:rgb(45,45,45);fill-rule:nonzero;"/>
    </g>
    <g transform="matrix(0.511592,0,0,0.511592,-3.4362,-2.03977)">
        <path d="M274.83,474.75C272.087,474.75 269.83,472.493 269.83,469.75C269.83,468.447 270.34,467.193 271.25,466.26C271.8,465.69 285.25,452.26 317.59,448.04C317.802,448.013 318.016,447.999 318.23,447.999C320.974,447.999 323.231,450.256 323.231,453C323.231,455.503 321.352,457.64 318.87,457.96C289.93,461.69 278.53,473.12 278.42,473.23C277.479,474.201 276.182,474.75 274.83,474.75Z" style="fill:rgb(45,45,45);fill-rule:nonzero;"/>
    </g>
    <g transform="matrix(0.511592,0,0,0.511592,-3.4362,-2.03977)">
        <path d="M436.76,358.81C435.314,358.809 433.938,358.181 432.99,357.09C426.38,349.46 417.57,329.41 431.59,308.17C445.61,286.93 467.72,286.62 477.49,289.37C479.737,289.903 481.336,291.926 481.336,294.235C481.336,296.978 479.079,299.235 476.336,299.235C475.811,299.235 475.289,299.152 474.79,298.99C473.94,298.76 453.29,293.45 439.94,313.68C426.59,333.91 439.99,349.88 440.56,350.56C441.334,351.465 441.76,352.619 441.76,353.81C441.76,356.553 439.503,358.81 436.76,358.81C436.76,358.81 436.76,358.81 436.76,358.81Z" style="fill:rgb(45,45,45);fill-rule:nonzero;"/>
    </g>
    <g transform="matrix(0.511592,0,0,0.511592,-3.4362,-2.03977)">
        <path d="M445.84,360.09C442.25,360.123 438.676,359.61 435.24,358.57C433.311,357.83 432.03,355.968 432.03,353.901C432.03,351.158 434.287,348.901 437.03,348.901C437.438,348.901 437.844,348.951 438.24,349.05C439.13,349.32 459.14,355.22 472.4,335.13C485.87,314.73 472.35,297.49 472.21,297.31C471.425,296.402 470.993,295.241 470.993,294.04C470.993,291.297 473.25,289.04 475.993,289.04C477.57,289.04 479.057,289.786 480,291.05C486.36,298.95 494.7,319.5 480.74,340.64C470.71,355.9 456.57,360.09 445.84,360.09Z" style="fill:rgb(45,45,45);fill-rule:nonzero;"/>
    </g>
    <g transform="matrix(0.511592,0,0,0.511592,-3.4362,-2.03977)">
        <path d="M420.62,388.42C420.617,388.42 420.614,388.42 420.611,388.42C417.868,388.42 415.611,386.163 415.611,383.42C415.611,382.801 415.726,382.187 415.95,381.61C420.313,370.714 426.118,360.452 433.21,351.1C434.154,349.842 435.637,349.1 437.21,349.1C439.953,349.1 442.21,351.357 442.21,354.1C442.21,355.182 441.859,356.235 441.21,357.1C434.636,365.722 429.255,375.191 425.21,385.25C424.468,387.137 422.648,388.394 420.62,388.42Z" style="fill:rgb(45,45,45);fill-rule:nonzero;"/>
    </g>
    <g transform="matrix(0.511592,0,0,0.511592,-3.4362,-2.03977)">
        <path d="M183.79,98.56C181.223,98.572 179.042,96.605 178.79,94.05C177.79,84.05 182.23,62.55 205.97,53.35C229.71,44.15 247.9,56.69 254.28,64.59C254.962,65.467 255.333,66.548 255.333,67.659C255.333,70.402 253.076,72.659 250.333,72.659C248.854,72.659 247.449,72.003 246.5,70.87C245.94,70.19 232.18,53.87 209.58,62.67C186.98,71.47 188.7,92.23 188.78,93.11C188.794,93.26 188.8,93.41 188.8,93.56C188.8,96.134 186.813,98.309 184.25,98.54L183.79,98.56Z" style="fill:rgb(45,45,45);fill-rule:nonzero;"/>
    </g>
    <g transform="matrix(0.511592,0,0,0.511592,-3.4362,-2.03977)">
        <path d="M211,111.49C195.57,111.49 184.35,102.67 179.78,96.57C179.131,95.705 178.78,94.652 178.78,93.57C178.78,90.827 181.037,88.57 183.78,88.57C185.353,88.57 186.836,89.312 187.78,90.57C188.34,91.31 201.25,107.7 223.68,99C246.48,90.16 245.43,68.27 245.42,68.05C245.414,67.95 245.411,67.85 245.411,67.75C245.411,65.002 247.672,62.741 250.42,62.741C253.055,62.741 255.262,64.82 255.42,67.45C256.03,77.58 250.95,99.16 227.32,108.33C222.124,110.388 216.589,111.459 211,111.49Z" style="fill:rgb(45,45,45);fill-rule:nonzero;"/>
    </g>
    <g transform="matrix(0.511592,0,0,0.511592,-3.4362,-2.03977)">
        <path d="M153.49,113.36C153.49,113.36 153.489,113.36 153.489,113.36C150.746,113.36 148.489,111.103 148.489,108.36C148.489,106.684 149.332,105.115 150.73,104.19C160.594,97.826 171.27,92.818 182.47,89.3C182.984,89.127 183.524,89.038 184.067,89.038C186.81,89.038 189.067,91.295 189.067,94.038C189.067,96.218 187.641,98.159 185.56,98.81C175.219,102.049 165.361,106.664 156.25,112.53C155.432,113.072 154.471,113.36 153.49,113.36Z" style="fill:rgb(45,45,45);fill-rule:nonzero;"/>
    </g>
    <g transform="matrix(0.511592,0,0,0.511592,-3.4362,-2.03977)">
        <path d="M155.78,280.57C154.902,280.573 154.039,280.342 153.28,279.9C150.908,278.525 150.087,275.443 151.46,273.07C188.66,208.82 235.86,155.36 295.76,109.61C317.44,93.06 339.57,81.61 361.55,75.51C380.47,70.28 398.65,69.32 414.12,72.73C429.33,76.08 441.03,83.67 446.22,93.54C446.598,94.258 446.796,95.058 446.796,95.87C446.796,98.613 444.538,100.871 441.795,100.871C439.941,100.871 438.234,99.84 437.37,98.2C433.55,90.93 424.29,85.2 411.97,82.49C380.77,75.61 339.59,88.72 301.83,117.56C245.43,160.63 200.5,210.65 164.71,270.28L168.86,270.46C170.06,270.52 171.44,270.59 171.73,270.57C184.707,270.01 197.6,268.201 210.23,265.17C242.48,257.39 267.85,241.03 292.51,212.17C301.24,201.94 318.78,184.35 338.19,181.42C338.437,181.383 338.686,181.364 338.935,181.364C341.678,181.364 343.936,183.622 343.936,186.365C343.936,188.828 342.116,190.943 339.68,191.31C322.88,193.85 306.42,211.31 300.12,218.66C274.36,248.85 246.54,266.72 212.58,274.92C199.3,278.106 185.744,280.005 172.1,280.59C171.56,280.59 170.73,280.59 168.41,280.48C166.09,280.37 159.67,280.09 157.61,280.26C157.025,280.477 156.404,280.582 155.78,280.57Z" style="fill:rgb(45,45,45);fill-rule:nonzero;"/>
    </g>
    <g transform="matrix(0.511592,0,0,0.511592,-3.4362,-2.03977)">
        <path d="M293,348.58C274.619,348.445 256.382,345.328 239,339.35C220.4,332.98 195,320.56 179.56,297.53C178.44,296.12 173.84,289.87 169.62,277C169.442,276.479 169.351,275.932 169.351,275.381C169.351,272.638 171.608,270.381 174.351,270.381C176.528,270.381 178.466,271.803 179.12,273.88C183.12,286 187.39,291.3 187.43,291.35C187.47,291.4 187.66,291.64 187.75,291.78C210.75,326.29 267.49,342.52 306.85,337.78C327.77,335.26 347.85,329.23 364.85,320.33C384.15,310.25 398.96,296.97 408.85,280.86C424.85,254.86 434.85,210.74 421.91,180.07C413.63,160.4 421.78,142.57 426.91,134.27C421.41,126.69 419.18,119.27 420.29,112.27C421.385,106.074 424.875,100.55 430,96.9C432.29,95.13 449.35,83.36 480.44,96.31C482.302,97.084 483.522,98.911 483.522,100.927C483.522,103.121 482.078,105.07 479.98,105.71C479.71,105.8 452.36,114.38 438.39,135.34L438.09,135.75C437.45,136.53 422.45,155.31 431.24,176.19C445.61,210.3 435.19,257.3 417.48,286.1C406.61,303.77 390.48,318.26 369.57,329.19C351.47,338.64 330.21,345.05 308.11,347.71C303.095,348.299 298.049,348.59 293,348.58ZM453.11,100.27C442.01,100.27 436.45,104.53 436.11,104.81C435.965,104.931 435.811,105.041 435.65,105.14C432.785,107.266 430.838,110.408 430.21,113.92C429.69,117.44 430.69,121.32 433.16,125.52C442.42,113.8 454.77,106.09 464.02,101.52C460.439,100.709 456.781,100.29 453.11,100.27Z" style="fill:rgb(45,45,45);fill-rule:nonzero;"/>
    </g>
    <g transform="matrix(0.511592,0,0,0.511592,-3.4362,-2.03977)">
        <path d="M54.48,365.51C35.08,365.51 26.99,355.15 26.48,354.51C25.67,353.421 25.331,352.051 25.54,350.71C25.758,349.369 26.513,348.173 27.63,347.4C72.89,316 152.56,271.65 153.36,271.2C154.103,270.787 154.94,270.57 155.79,270.57C158.533,270.57 160.79,272.827 160.79,275.57C160.79,277.383 159.804,279.059 158.22,279.94C157.45,280.37 84.29,321.08 38.79,351.89C45.31,355.62 59.85,359.56 86.59,346.98C129.09,326.98 185.93,299.2 186.5,298.92C187.184,298.587 187.934,298.413 188.695,298.413C191.442,298.413 193.702,300.673 193.702,303.42C193.702,305.331 192.608,307.082 190.89,307.92C190.32,308.2 133.41,336.01 90.89,356.04C75.82,363.1 63.83,365.51 54.48,365.51Z" style="fill:rgb(45,45,45);fill-rule:nonzero;"/>
    </g>
    <g transform="matrix(0.511592,0,0,0.511592,-3.4362,-2.03977)">
        <path d="M406,277C389.36,277 374.67,272.5 363,263.71C348.09,252.52 338.56,234.81 335.44,212.49C329.89,172.8 340.28,130.2 361.9,103.95C376.78,85.95 396.75,75.71 419.66,74.49C419.748,74.485 419.837,74.483 419.925,74.483C422.672,74.483 424.932,76.743 424.932,79.49C424.932,82.137 422.833,84.35 420.19,84.49C399.87,85.58 382.85,94.27 369.62,110.33C349.69,134.52 340.16,174.08 345.34,211.12C348.08,230.75 356.27,246.12 369,255.73C381.73,265.34 399.22,268.94 419.21,266.03C419.448,265.995 419.689,265.978 419.93,265.978C422.674,265.978 424.932,268.236 424.932,270.98C424.932,273.453 423.098,275.574 420.65,275.93C415.799,276.64 410.903,276.998 406,277Z" style="fill:rgb(45,45,45);fill-rule:nonzero;"/>
    </g>
    <g transform="matrix(0.511592,0,0,0.511592,-3.4362,-2.03977)">
        <path d="M183.63,279.71C180.915,279.671 178.702,277.426 178.702,274.711C178.702,272.754 179.85,270.971 181.63,270.16C226.28,250 253.65,201.5 253.93,201C254.83,199.486 256.466,198.556 258.227,198.556C260.97,198.556 263.227,200.813 263.227,203.556C263.227,204.354 263.036,205.141 262.67,205.85C261.5,207.96 233.47,257.72 185.67,279.26C185.029,279.552 184.334,279.705 183.63,279.71Z" style="fill:rgb(45,45,45);fill-rule:nonzero;"/>
    </g>
    <g transform="matrix(0.511592,0,0,0.511592,-3.4362,-2.03977)">
        <path d="M113.23,367.87C92.6,367.87 84.77,354.68 84.37,353.99C84.049,353.318 83.883,352.582 83.883,351.837C83.883,349.094 86.14,346.837 88.883,346.837C90.526,346.837 92.068,347.647 93,349C93.42,349.68 102,363.1 127.78,355.58C157.44,346.93 214.72,320.15 215.29,319.88C215.955,319.568 216.681,319.406 217.415,319.406C220.16,319.406 222.419,321.665 222.419,324.41C222.419,326.347 221.294,328.117 219.54,328.94C217.16,330.05 160.98,356.32 130.54,365.18C124.926,366.891 119.098,367.797 113.23,367.87Z" style="fill:rgb(45,45,45);fill-rule:nonzero;"/>
    </g>
    <g transform="matrix(0.511592,0,0,0.511592,-3.4362,-2.03977)">
        <path d="M316.51,394.47C314.401,394.47 312.509,393.136 311.8,391.15C305.8,374.3 286.08,346.81 285.88,346.54C285.268,345.689 284.939,344.668 284.939,343.62C284.939,340.877 287.197,338.619 289.94,338.619C291.548,338.619 293.061,339.395 294,340.7C294.85,341.87 314.74,369.62 321.23,387.79C322.155,390.366 320.802,393.246 318.23,394.18C317.679,394.379 317.096,394.477 316.51,394.47Z" style="fill:rgb(45,45,45);fill-rule:nonzero;"/>
    </g>
    <g transform="matrix(0.511592,0,0,0.511592,-3.4362,-2.03977)">
        <path d="M388.65,384.35C387.077,384.35 385.594,383.608 384.65,382.35C365.12,356.72 340.71,338.97 340.47,338.79C339.185,337.849 338.425,336.349 338.425,334.756C338.425,332.014 340.682,329.756 343.425,329.756C344.462,329.756 345.474,330.079 346.32,330.68C363.698,343.767 379.261,359.104 392.6,376.29C393.249,377.155 393.6,378.208 393.6,379.29C393.6,382.033 391.343,384.29 388.6,384.29L388.65,384.35Z" style="fill:rgb(45,45,45);fill-rule:nonzero;"/>
    </g>
    <g transform="matrix(0.511592,0,0,0.511592,-3.4362,-2.03977)">
        <path d="M135.5,500.5C135.497,500.5 135.493,500.5 135.49,500.5C127.261,500.5 120.49,493.729 120.49,485.5C120.49,478.853 124.909,472.961 131.29,471.1C152.497,464.869 172.509,455.124 190.49,442.27C279.49,377.63 389.04,359.19 483.54,392.94C489.636,394.984 493.771,400.732 493.771,407.162C493.771,415.39 487,422.162 478.771,422.162C476.956,422.162 475.157,421.832 473.46,421.19C388.29,390.77 289.1,407.73 208.12,466.54C187.342,481.405 164.217,492.682 139.71,499.9C138.342,500.299 136.925,500.501 135.5,500.5ZM386.5,386.36C321.18,386.36 254.34,408.28 196.4,450.36C177.476,463.886 156.417,474.141 134.1,480.7C131.973,481.32 130.5,483.284 130.5,485.5C130.5,488.243 132.757,490.5 135.5,490.5C135.974,490.498 136.445,490.431 136.9,490.3C160.309,483.407 182.398,472.641 202.25,458.45C285.9,397.69 388.54,380.25 476.82,411.77C477.414,412.01 478.049,412.133 478.69,412.133C481.433,412.133 483.69,409.876 483.69,407.133C483.69,404.951 482.262,403.01 480.18,402.36C450.094,391.686 418.393,386.273 386.47,386.36L386.5,386.36Z" style="fill:rgb(45,45,45);fill-rule:nonzero;"/>
    </g>
    <g transform="matrix(0.511592,0,0,0.511592,-3.4362,-2.03977)">
        <path d="M26.51,500.49C26.502,500.49 26.494,500.49 26.486,500.49C18.257,500.49 11.486,493.719 11.486,485.49C11.486,480.988 13.512,476.717 17,473.87C18.91,472.31 64.67,435.74 142.66,431.52C162.352,430.434 182.102,431.164 201.66,433.7C204.137,434.027 206.008,436.162 206.008,438.66C206.008,441.405 203.75,443.663 201.005,443.663C200.786,443.663 200.567,443.649 200.35,443.62C181.402,441.157 162.268,440.45 143.19,441.51C68.41,445.51 25.11,480.15 23.3,481.62C22.14,482.569 21.466,483.991 21.466,485.49C21.466,488.233 23.723,490.49 26.466,490.49C26.467,490.49 26.469,490.49 26.47,490.49C27.616,490.492 28.728,490.1 29.62,489.38C30.04,489.04 72.62,455.38 143.73,451.49C154.329,450.918 164.95,450.902 175.55,451.44C178.197,451.575 180.301,453.79 180.301,456.44C180.301,459.186 178.041,461.446 175.295,461.446C175.21,461.446 175.125,461.444 175.04,461.44C164.79,460.917 154.519,460.933 144.27,461.49C76.86,465.13 36.27,496.86 35.88,497.18C33.224,499.315 29.918,500.483 26.51,500.49Z" style="fill:rgb(45,45,45);fill-rule:nonzero;"/>
    </g>
    <g transform="matrix(0.511592,0,0,0.511592,-3.4362,-2.03977)">
        <path d="M264.47,481C262.151,480.997 259.865,480.456 257.79,479.42C257.64,479.34 239.05,470.37 207.67,465.01C205.203,464.675 203.343,462.545 203.343,460.056C203.343,457.313 205.6,455.056 208.343,455.056C208.685,455.056 209.026,455.091 209.36,455.16C242.55,460.83 262.06,470.37 262.25,470.46C262.948,470.812 263.72,470.996 264.502,470.996C266.39,470.996 268.123,469.927 268.97,468.24C270.199,465.788 269.192,462.759 266.74,461.53C266.21,461.26 253.54,455 231.5,449.53C229.266,448.987 227.68,446.97 227.68,444.671C227.68,441.928 229.937,439.671 232.68,439.671C233.102,439.671 233.522,439.725 233.93,439.83C256.62,445.5 269.78,451.91 271.21,452.62C276.244,455.171 279.43,460.356 279.43,466C279.43,474.214 272.683,480.978 264.47,481Z" style="fill:rgb(45,45,45);fill-rule:nonzero;"/>
    </g>
    <g transform="matrix(0.511592,0,0,0.511592,-3.4362,-2.03977)">
        <path d="M26.34,233.48C26.335,233.48 26.331,233.48 26.326,233.48C18.097,233.48 11.326,226.709 11.326,218.48C11.326,212.424 14.994,206.936 20.59,204.62C21.01,204.43 66.52,184.69 108.52,130.62C125.423,108.985 138.184,84.411 146.16,58.14C152,38.53 152.61,25.49 152.61,25.37C152.747,21.953 154.037,18.681 156.27,16.09C159.118,12.802 163.259,10.91 167.609,10.91C175.838,10.91 182.609,17.681 182.609,25.91C182.609,26.083 182.606,26.257 182.6,26.43C182.52,28.89 180.15,87.43 132.21,149.08C84.85,210 34.21,231.45 32.06,232.33C30.248,233.088 28.304,233.479 26.34,233.48ZM167.6,21C166.153,21.004 164.776,21.635 163.83,22.73C163.076,23.59 162.645,24.687 162.61,25.83C162.61,26.37 160.14,80.61 116.42,136.83C72.5,193.31 24.91,213.67 24.42,213.83C22.55,214.6 21.323,216.432 21.323,218.455C21.323,221.199 23.581,223.457 26.325,223.457C26.979,223.457 27.626,223.329 28.23,223.08C30.23,222.23 78.55,201.78 124.3,142.93C170.3,83.79 172.52,28.42 172.59,26.09C172.641,23.38 170.479,21.097 167.77,21L167.6,21Z" style="fill:rgb(45,45,45);fill-rule:nonzero;"/>
    </g>
</svg>
